<?xml version="1.0" encoding="utf-8"?>
<!-- Generator: Adobe Illustrator 23.0.2, SVG Export Plug-In . SVG Version: 6.00 Build 0)  -->
<svg version="1.1" xmlns="http://www.w3.org/2000/svg" xmlns:xlink="http://www.w3.org/1999/xlink" x="0px" y="0px"
	 viewBox="0 0 101 97" style="enable-background:new 0 0 101 97;" xml:space="preserve">
<style type="text/css">
	.st0{fill:#0F66DC;}
	.st1{fill:#495057;}
	.st2{fill:#FFFFFF;}
	.st3{fill:#9BBC4E;}
	.st4{fill:#1C2435;}
	.st5{fill:#F5F5F5;}
	.st6{opacity:0.72;fill:#FFFFFF;}
	.st7{opacity:0.72;fill:#9BBC4E;}
	.st8{fill:none;stroke:#1C2435;stroke-width:2;stroke-miterlimit:10;}
	.st9{opacity:0.72;}
	.st10{fill:none;stroke:#1C2435;stroke-width:2;stroke-linecap:round;stroke-miterlimit:10;}
	.st11{fill:#F2F7F8;}
	.st12{opacity:0.59;fill:#9BBC4E;}
	.st13{fill:none;stroke:#1C2435;stroke-miterlimit:10;}
	.st14{fill:none;stroke:#FFFFFF;stroke-width:2;stroke-miterlimit:10;}
	.st15{fill:none;stroke:#FFFFFF;stroke-width:2;stroke-linecap:round;stroke-miterlimit:10;}
	.st16{fill:none;stroke:#9BBC4E;stroke-width:2;stroke-miterlimit:10;}
	.st17{fill:none;stroke:#9BBC4E;stroke-width:2;stroke-linecap:round;stroke-miterlimit:10;}
	.st18{fill:none;stroke:#9BBC4E;stroke-width:3;stroke-linecap:round;stroke-miterlimit:10;}
	.st19{opacity:0.34;fill:#9BBC4E;}
	.st20{fill:none;stroke:#1C2435;stroke-width:3;stroke-linecap:round;stroke-miterlimit:10;}
	.st21{fill:#1C2435;stroke:#1C2435;stroke-linecap:round;stroke-miterlimit:10;}
	.st22{fill:#1C2435;stroke:#1C2435;stroke-width:0.5;stroke-linecap:round;stroke-miterlimit:10;}
	.st23{fill:#FFFFFF;stroke:#1C2435;stroke-width:2;stroke-miterlimit:10;}
	.st24{fill:#C1272D;}
	.st25{fill:#2E3192;stroke:#FFFFFF;stroke-width:2;stroke-miterlimit:10;}
	.st26{fill:#0071BC;stroke:#1C2435;stroke-width:2;stroke-miterlimit:10;}
	.st27{fill:#C1272D;stroke:#FFFFFF;stroke-miterlimit:10;}
	.st28{fill:#C1272D;stroke:#FFFFFF;stroke-width:1.5;stroke-miterlimit:10;}
	.st29{fill:#2E3192;}
	.st30{fill:none;}
	.st31{fill:none;stroke:#1C2435;stroke-width:1.5;stroke-miterlimit:10;}
	.st32{fill:#FFFFFF;stroke:#1C2435;stroke-width:2;stroke-linecap:round;stroke-miterlimit:10;}
</style>
<g id="Layer_1">
</g>
<g id="Layer_2">
	<path class="st7" d="M58.37,66h2.22c1.4,0,2.54-1.37,2.54-3.07v-5.76C61.56,60.14,59.98,63.08,58.37,66z"/>
	<path class="st2" d="M63.12,50.28c0-1.7-1.14-3.07-2.54-3.07H41.69C41.69,53.38,41.65,59.7,41.52,66h16.85
		c1.61-2.92,3.2-5.86,4.75-8.83V50.28z"/>
	<path class="st7" d="M36.45,65.84h4.89c0.13-5.93,0.17-11.88,0.17-17.69h-5.06c-1.35,0-2.45,1.29-2.45,2.89v11.91
		C34,64.55,35.1,65.84,36.45,65.84z"/>
	<path class="st10" d="M41.99,44.46v7.87c0,1.73,1.19,3.13,2.66,3.13h0c1.47,0,2.66-1.4,2.66-3.13V42.3c0-1.96-1.35-3.54-3.01-3.54
		H41.5c-1.69,0-3.05,1.61-3.05,3.59v12.59c0,4.32,2.98,6.73,6.66,6.73h0c3.68,0,6.66-2.41,6.66-6.73V37.63
		c0-3.53-1.78-6.39-7.31-6.39"/>
	<path class="st8" d="M59.58,66H36.61C35.17,66,34,64.83,34,63.39v-13.4c0-1.44,1.17-2.61,2.61-2.61h22.97
		c1.44,0,2.61,1.17,2.61,2.61v13.4C62.18,64.83,61.01,66,59.58,66z"/>
</g>
</svg>
