<svg width="23" height="23" viewBox="0 0 23 23" fill="none" xmlns="http://www.w3.org/2000/svg">
<path d="M13.5164 18.9054L20.0276 11.4512L20.7012 11.9002L14.0103 19.3993L13.5164 18.9054Z" fill="#84A13D"/>
<path d="M0.718475 17.2429L10.9119 1.43634V0.942383L1.07771 1.0771L0.718475 17.2429Z" fill="#84A13D"/>
<path fill-rule="evenodd" clip-rule="evenodd" d="M1.35642 0.11801C0.920574 0.256138 0.254005 0.948033 0.119021 1.40247C-0.0396735 1.93702 -0.0396735 21.0543 0.119021 21.5889C0.263435 22.0749 0.925693 22.7372 1.41174 22.8816C1.94342 23.0395 15.5881 23.0395 16.1197 22.8816C16.6058 22.7372 17.268 22.0749 17.4125 21.5889C17.4842 21.3471 17.5225 20.5391 17.5228 19.2538L17.5235 17.2884L19.9959 14.3696C21.3557 12.7642 22.5677 11.2859 22.6891 11.0842C23.4983 9.74177 22.5525 8.08289 20.9779 8.08289C20.1456 8.08289 19.7855 8.33499 18.5999 9.7477L17.5671 10.9784L17.5222 7.44255C17.4812 4.21675 17.4625 3.87691 17.3085 3.56698C17.0819 3.11083 14.4079 0.560503 13.8276 0.246977L13.3705 0L7.52061 0.00916054C3.50925 0.0154472 1.57196 0.0496648 1.35642 0.11801ZM12.1336 3.14739C12.1336 5.56372 11.9585 5.38859 14.3748 5.38859H16.1751V9.00757V12.6266L14.6893 14.3737C13.8721 15.3347 13.1489 16.2219 13.0822 16.3454C13.0155 16.4689 12.7933 17.266 12.5885 18.1167C12.2412 19.56 12.2253 19.6809 12.3512 19.9245C12.4861 20.1852 12.6551 20.297 12.9145 20.297C13.0723 20.297 15.4442 19.2886 15.8832 19.0348L16.1751 18.8661V20.0347C16.1751 21.1557 16.1661 21.2123 15.9546 21.4237L15.7342 21.6442H8.76574H1.7973L1.5769 21.4237L1.35642 21.2033V11.4957V1.78803L1.5769 1.56763L1.7973 1.34715H6.9655H12.1336V3.14739ZM15.7245 3.74166L16.0374 4.04144H14.759H13.4808V2.81509V1.58874L14.4462 2.5154C14.9772 3.02498 15.5524 3.57686 15.7245 3.74166ZM2.92405 4.26193C2.80281 4.38317 2.70357 4.58704 2.70357 4.71502C2.70357 4.843 2.80281 5.04687 2.92405 5.16811L3.14445 5.38859H6.74501H10.3456L10.566 5.16811C10.6872 5.04687 10.7865 4.843 10.7865 4.71502C10.7865 4.58704 10.6872 4.38317 10.566 4.26193L10.3456 4.04144H6.74501H3.14445L2.92405 4.26193ZM3.16079 8.18078C2.54003 8.42902 2.55673 9.18638 3.18827 9.42654C3.52587 9.55487 14.0056 9.55487 14.3432 9.42654C14.9905 9.18046 14.9905 8.42228 14.3432 8.1762C14.022 8.05406 3.46695 8.05837 3.16079 8.18078ZM21.4456 9.62528C21.7399 9.90172 21.709 10.2339 21.3508 10.6484L21.048 10.9986L20.5362 10.5613L20.0244 10.124L20.3632 9.77697C20.7602 9.37049 21.1205 9.31993 21.4456 9.62528ZM19.6872 11.6022C19.9415 11.8167 20.1134 12.0293 20.0874 12.0972C20.0622 12.1628 19.2439 13.1624 18.2688 14.3187C16.8686 15.9792 16.4669 16.404 16.3579 16.3403C16.282 16.2958 16.0454 16.1064 15.8319 15.9193L15.4438 15.5791L17.2688 13.4071C18.2727 12.2125 19.127 11.2331 19.1676 11.2306C19.2081 11.2282 19.4419 11.3954 19.6872 11.6022ZM3.16079 12.2222C2.54003 12.4705 2.55673 13.2278 3.18827 13.468C3.52587 13.5963 14.0056 13.5963 14.3432 13.468C14.9905 13.2219 14.9905 12.4637 14.3432 12.2176C14.022 12.0955 3.46695 12.0998 3.16079 12.2222ZM3.16079 16.2637C2.54003 16.5119 2.55673 17.2693 3.18827 17.5094C3.52138 17.6361 9.96865 17.6361 10.3018 17.5094C10.6123 17.3913 10.7807 17.1716 10.7807 16.8843C10.7807 16.597 10.6123 16.3772 10.3018 16.2591C9.98491 16.1387 3.46309 16.1428 3.16079 16.2637ZM15.5123 17.4406C15.6039 17.5887 15.1829 17.9164 14.5687 18.175C14.2532 18.3078 13.9801 18.4015 13.9618 18.3831C13.8812 18.3025 14.2359 17.0415 14.3965 16.8372L14.5743 16.6113L15.0152 16.9804C15.2576 17.1835 15.4814 17.3905 15.5123 17.4406Z" fill="#535C70"/>
</svg>
