<svg width="16" height="16" viewBox="0 0 16 16" fill="none" xmlns="http://www.w3.org/2000/svg">
<path d="M6.20852 4.58824C5.79711 4.98719 5.39817 5.33626 5.05533 5.74143C4.96183 5.85364 4.83093 5.83494 4.71249 5.83494C3.66527 5.83494 2.61182 5.8474 1.5646 5.8287C1.30279 5.82247 1.24046 5.9035 1.24046 6.15908C1.25292 8.74596 1.24669 11.3328 1.24669 13.9197C1.24669 14.5119 1.45863 14.7176 2.06327 14.7176C2.94842 14.7176 3.82734 14.7238 4.71249 14.7114C4.89326 14.7114 5.02416 14.755 5.1426 14.8984C5.46674 15.2786 5.84698 15.6028 6.24592 15.9082C6.17735 16.0079 6.09008 15.9643 6.01528 15.9643C4.66262 15.9705 3.3162 15.9705 1.96354 15.9643C0.797882 15.9581 0 15.1664 0 14.007C0 10.4041 0 6.79489 0 3.19195C0 2.05123 0.804116 1.25958 1.94484 1.24711C2.61805 1.24711 2.61805 1.24711 2.61805 0.5739C2.61805 0.00665555 2.61805 0.00665558 3.18529 0.00665558C3.87098 0.00665558 3.87098 0.00665561 3.87098 0.673635C3.87098 1.25335 3.87098 1.25335 4.45692 1.25335C6.90043 1.25335 9.33771 1.24711 11.7812 1.25958C12.0368 1.25958 12.1303 1.19725 12.1054 0.93544C12.0804 0.698569 12.1054 0.455464 12.0991 0.218593C12.0929 0.0627567 12.1303 -0.00581133 12.3048 0.000422126C12.5853 0.012889 12.8658 0.012889 13.1464 0.000422126C13.3147 -0.00581133 13.3583 0.0565232 13.3521 0.218593C13.3396 0.499098 13.3583 0.779604 13.3458 1.06011C13.3396 1.20971 13.3957 1.25335 13.5391 1.25335C13.857 1.25335 14.1811 1.22218 14.499 1.29698C15.3343 1.49645 15.9327 2.20083 15.9576 3.05481C15.9701 3.38519 15.9514 3.72179 15.9639 4.05217C15.9701 4.20177 15.914 4.25164 15.7644 4.2454C15.4964 4.23917 15.2221 4.23294 14.9541 4.2454C14.7671 4.25787 14.6923 4.208 14.7047 4.00853C14.7234 3.72803 14.7172 3.44752 14.7047 3.16702C14.6923 2.74938 14.4554 2.5125 14.044 2.50004C13.3396 2.46887 13.3396 2.46887 13.3396 3.17325C13.3396 3.74673 13.3396 3.74673 12.7786 3.74673C12.0929 3.74673 12.0929 3.74673 12.0929 3.04858C12.0929 2.50004 12.0929 2.50004 11.5381 2.50004C9.08838 2.50004 6.63863 2.50627 4.18265 2.4938C3.92708 2.4938 3.82734 2.54367 3.85851 2.81171C3.88344 3.04858 3.85851 3.29169 3.86474 3.52856C3.87098 3.67816 3.83981 3.75919 3.66527 3.74673C3.3723 3.73426 3.08556 3.74049 2.79259 3.74673C2.65545 3.75296 2.61182 3.69686 2.61182 3.56596C2.61805 3.27299 2.60558 2.98625 2.61805 2.69327C2.62428 2.5499 2.58065 2.4751 2.42481 2.50004C2.41235 2.50004 2.40611 2.50004 2.39365 2.50004C1.55213 2.46887 1.18436 2.50627 1.24669 3.61583C1.25916 3.84646 1.26539 4.0771 1.24669 4.30151C1.22176 4.55084 1.32773 4.58824 1.5459 4.58824C2.99206 4.58201 4.43199 4.58201 5.87815 4.58201C5.99035 4.58824 6.09632 4.58824 6.20852 4.58824Z" fill="#535B70"/>
<path d="M14.7109 6.67023C14.7109 6.34609 14.7233 6.04688 14.7046 5.75391C14.6984 5.56068 14.742 5.47341 14.954 5.48587C15.2719 5.51081 15.6895 5.38614 15.889 5.54197C16.0947 5.71028 15.9513 6.14662 15.9513 6.46453C15.9576 7.20007 15.9513 7.94185 15.9576 8.6774C15.9576 8.86441 15.9139 8.92674 15.7207 8.92674C14.7358 8.91427 13.7447 8.91427 12.7598 8.92674C12.5603 8.92674 12.5105 8.85817 12.5229 8.6774C12.5416 8.3595 12.417 7.94185 12.579 7.74238C12.7473 7.53668 13.1837 7.69252 13.4954 7.67382C13.5889 7.66758 13.6761 7.67382 13.8257 7.67382C13.4081 7.06917 12.8907 6.65776 12.2861 6.35232C9.79268 5.0807 6.75699 6.42713 6.02144 9.11998C5.24849 11.9437 7.3741 14.7301 10.3038 14.7052C10.6529 14.7052 10.7402 14.8174 10.7215 15.1228C10.7152 15.235 10.7339 15.3534 10.7464 15.4656C10.8087 15.9705 10.8087 15.9705 10.2914 15.9705C7.31177 15.9705 4.80592 13.633 4.62515 10.6846C4.43814 7.68005 6.57622 5.062 9.55581 4.68176C11.4321 4.44489 13.0341 5.03083 14.368 6.35856C14.4678 6.45206 14.58 6.54556 14.7109 6.67023Z" fill="#9B9B9B"/>
<path d="M10.9087 8.9579C10.9087 9.42541 10.9024 9.89292 10.9087 10.3604C10.9087 10.5038 10.8775 10.6098 10.7591 10.7095C10.2791 11.1084 9.80534 11.5074 9.33783 11.9188C9.19446 12.0435 9.11343 12.0497 8.99499 11.8939C8.83292 11.6757 8.65838 11.47 8.47138 11.2767C8.35294 11.1521 8.37788 11.0835 8.49631 10.9838C8.82045 10.722 9.12589 10.4415 9.45003 10.1797C9.59964 10.0612 9.6682 9.93655 9.66197 9.73708C9.6495 9.02024 9.6682 8.30339 9.6495 7.58654C9.64327 7.36214 9.6869 7.26864 9.93624 7.28734C10.2417 7.31227 10.6469 7.19383 10.8401 7.34344C11.0396 7.50551 10.89 7.92938 10.9024 8.23482C10.9211 8.47793 10.9087 8.72103 10.9087 8.9579Z" fill="#9B9B9B"/>
<path d="M15.3468 10.2919C16.0013 10.2919 16.0013 10.2919 15.9202 10.9651C15.8267 11.6944 15.8267 11.6944 15.1286 11.5199C14.5987 11.3827 14.5987 11.3827 14.6798 10.8591C14.7546 10.2919 14.7546 10.2919 15.3468 10.2919Z" fill="#9B9B9B"/>
<path d="M15.2783 13.0096C15.1162 13.2589 14.9791 13.4771 14.8232 13.6828C14.4929 14.1379 14.4866 14.1316 14.0752 13.7576C13.9069 13.6018 13.6576 13.4647 13.6139 13.2776C13.5703 13.0969 13.8508 12.9473 13.9506 12.754C14.0004 12.6668 14.0628 12.5795 14.1126 12.4922C14.1563 12.4112 14.2061 12.3987 14.2872 12.4424C14.5739 12.6044 14.8669 12.754 15.1598 12.9161C15.2097 12.941 15.2409 12.9784 15.2783 13.0096Z" fill="#9B9B9B"/>
<path d="M12.2549 15.6276C12.1364 15.6463 12.1302 15.5528 12.1053 15.4905C11.9993 15.21 11.912 14.9233 11.806 14.6427C11.7624 14.5181 11.7873 14.4557 11.912 14.4059C12.1427 14.3061 12.3671 14.2002 12.579 14.0755C12.7037 14.0069 12.766 14.0381 12.8283 14.1441C12.9468 14.3311 13.0652 14.5056 13.1899 14.6926C13.4267 15.0479 13.4267 15.0542 13.0403 15.2599C12.7785 15.3845 12.5167 15.503 12.2549 15.6276Z" fill="#9B9B9B"/>
</svg>
